<?xml version="1.0" encoding="utf-8"?>
<!-- Generator: Adobe Illustrator 19.2.1, SVG Export Plug-In . SVG Version: 6.00 Build 0)  -->
<svg version="1.0" xmlns="http://www.w3.org/2000/svg" xmlns:xlink="http://www.w3.org/1999/xlink" x="0px" y="0px" width="610px"
	 height="610px" viewBox="0 0 610 610" enable-background="new 0 0 610 610" xml:space="preserve">
<g id="bg_color">
</g>
<g id="position_tracing">
</g>
<g id="Layer_1">
	<g>
		<rect fill="#100E1F" width="610" height="610"/>
		<g>
			<g>
				<path fill-rule="evenodd" clip-rule="evenodd" fill="#FFFFFF" d="M282.42291,411.09229c0-52.9072,0-105.65479,0-158.66548
					c15.0058,0,29.97067,0,45.4794,0c0,1.3432,0,2.7719,0,4.2021c0,36.50879,0.04108,72.99948,0,109.46729
					c0,4.76422-0.15622,9.59811-0.46191,14.36621c-1.2207,17.3071-12.53021,29.00101-29.83789,30.62988
					C292.74411,411.46439,287.8096,411.09229,282.42291,411.09229z"/>
				<path fill-rule="evenodd" clip-rule="evenodd" fill="#FFFFFF" d="M401.75201,252.3979c0,39.78621,0,79.28758,0,119.07961
					c-9.5206-0.0488-18.99033,0.87891-27.5704-3.5463c-12.37402-6.32721-17.66992-17.11722-17.7851-30.58551
					c-0.14941-19.4639,0-38.94141,0-58.4678c0-8.64551,0-17.39841,0-26.48C371.418,252.3979,386.4082,252.3979,401.75201,252.3979z"
					/>
				<path fill-rule="evenodd" clip-rule="evenodd" fill="#FFFFFF" d="M253.77251,372.21289
					c-7.76271-0.85449-15.08791-0.91599-22.1338-2.49118c-12.14261-2.67731-21.2998-13.49271-22.4873-25.8989
					c-0.6846-6.77402-0.8262-13.52011-0.8262-20.28232c-0.12309-22.686-0.0889-45.38431-0.0889-68.041
					c0-1.00189,0.1651-1.9424,0.21291-3.1348c15.12309,0,30.1358,0,45.3233,0
					C253.77251,291.9985,253.77251,331.62109,253.77251,372.21289z"/>
				<path fill-rule="evenodd" clip-rule="evenodd" fill="#FFFFFF" d="M356.4707,223.3105c0-14.7753,0-29.625,0-44.4902
					c23.2803-3.2876,43.4736,6.45511,44.95898,31.1416c0.20602,3.70801,0.26462,7.3833,0.4873,11.0464
					c0.0498,1.7393-0.3223,2.8208-2.4346,2.8208c-14.01459-0.0728-28.06439-0.0728-42.13858-0.11909
					C357.12299,223.71001,356.89941,223.51559,356.4707,223.3105z"/>
			</g>
		</g>
	</g>
</g>
<g id="layout_ref" display="none">
</g>
</svg>
