<?xml version="1.0" encoding="utf-8"?>
<!-- Generator: Adobe Illustrator 19.2.1, SVG Export Plug-In . SVG Version: 6.00 Build 0)  -->
<svg version="1.0" xmlns="http://www.w3.org/2000/svg" xmlns:xlink="http://www.w3.org/1999/xlink" x="0px" y="0px" width="1402px"
	 height="562px" viewBox="0 0 1402 562" enable-background="new 0 0 1402 562" xml:space="preserve">
<g id="bg_color">
</g>
<g id="position_tracing">
</g>
<g id="Layer_1">
	<rect fill="#100E1F" width="1402" height="562"/>
	<g>
		<g>
			<g>
				<g>
					<g>
						<path fill="#D7C6AA" stroke="#D7C6AA" stroke-width="2" stroke-miterlimit="10" d="M439.40768,206.8311l-63.77728,91.1367
							v66.4082h-4.40039v-66.4082l-63.55762-91.1367h5.51361l60.24319,86.4814l60.6777-86.4814H439.40768z"/>
					</g>
					<g>
						<path fill="#D7C6AA" stroke="#D7C6AA" stroke-width="2" stroke-miterlimit="10" d="M477.3472,285.60251
							c0-11.18451,1.5722-21.76071,4.7392-31.75481c3.168-10.0284,7.80081-18.77251,13.8985-26.2686
							c6.1015-7.50391,13.68161-13.4727,22.73239-17.8652c9.05078-4.418,19.45898-6.6358,31.2226-6.6358
							c11.7608,0,22.16699,2.2178,31.21979,6.6358c9.04883,4.3925,16.6084,10.3613,22.70703,17.8652
							c6.12207,7.49609,10.75592,16.2402,13.9248,26.2686c3.14551,9.99409,4.7334,20.5703,4.7334,31.75481
							c0,11.1788-1.58789,21.76569-4.7334,31.77539c-3.16888,10.00201-7.80273,18.7471-13.9248,26.24911
							c-6.09863,7.49799-13.6582,13.42569-22.70703,17.77728c-9.0528,4.32809-19.45898,6.50589-31.21979,6.50589
							c-11.76361,0-22.17181-2.1778-31.2226-6.50589c-9.05078-4.35159-16.63089-10.2793-22.73239-17.77728
							c-6.09769-7.50201-10.7305-16.2471-13.8985-26.24911C478.9194,307.36819,477.3472,296.78131,477.3472,285.60251z
							 M481.76511,285.60251c0.13379,11.33398,1.78909,21.76569,4.95218,31.32819
							c3.16992,9.56641,7.65332,17.79489,13.4736,24.71481c5.7959,6.91498,12.90042,12.3223,21.28323,16.2207
							c8.38666,3.9072,17.86426,5.83588,28.46576,5.83588c10.5752,0,20.08209-1.92868,28.461-5.83588
							c8.38184-3.89841,15.46478-9.30573,21.28613-16.2207c5.79785-6.91992,10.30176-15.14841,13.46875-24.71481
							c3.14551-9.5625,4.80762-19.9942,4.95502-31.32819c-0.1474-11.33301-1.80951-21.76071-4.95502-31.33202
							c-3.16699-9.5625-7.6709-17.79199-13.46875-24.71289c-5.82135-6.9189-12.9043-12.3203-21.28613-16.22169
							c-8.37891-3.87401-17.8858-5.83981-28.461-5.83981c-10.6015,0-20.0791,1.96581-28.46576,5.83981
							c-8.38281,3.9014-15.48734,9.3028-21.28323,16.22169c-5.82028,6.9209-10.30368,15.15039-13.4736,24.71289
							C483.5542,263.8418,481.8989,274.2695,481.76511,285.60251z"/>
					</g>
					<g>
						<path fill="#D7C6AA" stroke="#D7C6AA" stroke-width="2" stroke-miterlimit="10" d="M805.43701,328.9541
							c-3.68262,8.0127-8.4267,14.88669-14.24225,20.6377c-5.79877,5.74121-12.67188,10.21481-20.62299,13.44531
							c-7.94629,3.22949-16.9151,4.87308-26.90918,4.87308c-10.44922,0-20.05957-2.02737-28.80762-6.07617
							c-8.74316-4.05081-16.25-9.63672-22.49707-16.76562c-6.24609-7.12888-11.13672-15.6651-14.67194-25.59769
							c-3.5332-9.93069-5.3017-20.77441-5.3017-32.5303c0-9.5722,1.35541-19.30951,4.09082-29.24609
							c2.71777-9.9277,7.01172-18.93651,12.91022-27.03801c5.88367-8.0743,13.53406-14.6866,22.95105-19.83989
							c9.39264-5.15331,20.78619-7.73831,34.19141-7.73831c10.42871,0,19.56549,1.7471,27.3623,5.19441
							c7.7793,3.44719,14.28522,7.8037,19.52643,13.0127c5.20801,5.2343,9.15527,10.77049,11.80078,16.6543
							c2.6308,5.87981,4.02679,11.24409,4.17719,16.1162h-4.41345c-0.42883-5.72949-2.13293-11.3721-5.05865-16.88869
							c-2.95898-5.5166-6.95605-10.4736-12.02734-14.89061c-5.08203-4.41899-11.11816-7.97369-18.09473-10.6875
							c-6.98627-2.73439-14.73932-4.0928-23.27252-4.0928c-12.9502,0-23.86908,2.60451-32.77148,7.84471
							c-8.90131,5.20799-16.07709,11.76079-21.51068,19.62599c-5.44342,7.8623-9.36523,16.4424-11.80182,25.70901
							c-2.43549,9.25879-3.6416,18.01169-3.6416,26.26459c0,9.99609,1.46588,19.62109,4.41901,28.8887
							c2.93073,9.26859,7.28607,17.43549,13.00592,24.49899c5.73425,7.04489,12.76355,12.7149,21.07709,16.97949
							c8.29883,4.2666,17.75781,6.3945,28.3584,6.3945c9.39648,0,17.85938-1.54779,25.36127-4.6308
							c7.49713-3.0762,13.9776-7.3447,19.40631-12.79788c5.45599-5.42871,9.87689-11.9101,13.25293-19.4072
							c3.38666-7.50681,5.64935-15.60162,6.83887-24.2637h4.41162C811.62109,312.14941,809.09857,320.9375,805.43701,328.9541z"/>
						<path fill="#D7C6AA" stroke="#D7C6AA" stroke-width="2" stroke-miterlimit="10" d="M710.03467,214.8652
							c-7.53809,4.6514-13.83008,10.418-18.74908,17.1758c-4.41302,6.0401-7.93158,12.70509-10.51459,19.87601
							c2.41498-6.48051,5.61719-12.60941,9.54877-18.2861C695.40192,226.2803,702.02692,219.9756,710.03467,214.8652z"/>
					</g>
					<g>
						<path fill="#D7C6AA" stroke="#D7C6AA" stroke-width="2" stroke-miterlimit="10" d="M851.97656,206.8311h117.59369v4.414
							h-56.68359v153.13091h-4.41888V211.2451h-56.49121V206.8311z"/>
					</g>
					<g>
						<path fill="#D7C6AA" stroke="#D7C6AA" stroke-width="2" stroke-miterlimit="10" d="M1010.40527,285.60251
							c0-11.18451,1.57812-21.76071,4.74408-31.75481c3.13971-10.0284,7.77252-18.77251,13.89655-26.2686
							c6.0918-7.50391,13.68066-13.4727,22.72461-17.8652c9.02832-4.418,19.43652-6.6358,31.2207-6.6358
							c11.76855,0,22.17676,2.2178,31.20215,6.6358c9.05066,4.3925,16.63574,10.3613,22.7334,17.8652
							c6.09375,7.49609,10.72852,16.2402,13.89636,26.2686c3.16614,9.99409,4.7373,20.5703,4.7373,31.75481
							c0,11.1788-1.57117,21.76569-4.7373,31.77539c-3.16785,10.00201-7.80261,18.7471-13.89636,26.24911
							c-6.09766,7.49799-13.68274,13.42569-22.7334,17.77728c-9.02539,4.32809-19.43359,6.50589-31.20215,6.50589
							c-11.78418,0-22.19238-2.1778-31.2207-6.50589c-9.04395-4.35159-16.63281-10.2793-22.72461-17.77728
							c-6.12402-7.50201-10.75684-16.2471-13.89655-26.24911C1011.9834,307.36819,1010.40527,296.78131,1010.40527,285.60251z
							 M1014.80078,285.60251c0.15039,11.33398,1.81348,21.76569,4.97949,31.32819
							c3.1416,9.56641,7.64551,17.79489,13.43652,24.71481c5.82324,6.91498,12.91113,12.3223,21.31152,16.2207
							c8.38086,3.9072,17.86426,5.83588,28.46289,5.83588c10.58398,0,20.06348-1.92868,28.44922-5.83588
							c8.40039-3.89841,15.49023-9.30573,21.30859-16.2207c5.78711-6.91992,10.27148-15.14841,13.4325-24.71481
							c3.17004-9.5625,4.83411-19.9942,4.9845-31.32819c-0.15039-11.33301-1.81445-21.76071-4.9845-31.33202
							c-3.16101-9.5625-7.64539-17.79199-13.4325-24.71289c-5.81836-6.9189-12.9082-12.3203-21.30859-16.22169
							c-8.38574-3.87401-17.86523-5.83981-28.44922-5.83981c-10.59863,0-20.08203,1.96581-28.46289,5.83981
							c-8.40039,3.9014-15.48828,9.3028-21.31152,16.22169c-5.79102,6.9209-10.29492,15.15039-13.43652,24.71289
							C1016.61426,263.8418,1014.95117,274.2695,1014.80078,285.60251z"/>
					</g>
					<g>
						<path fill="#D7C6AA" stroke="#D7C6AA" stroke-width="2" stroke-miterlimit="10" d="M1308.24023,364.37601h-96.39941V206.8311
							h4.39746v153.1328h92.00195V364.37601z"/>
					</g>
				</g>
			</g>
		</g>
		<g>
			<path fill-rule="evenodd" clip-rule="evenodd" fill="#D7C6AA" d="M147.8877,367.78909c0-38.59958,0-77.08301,0-115.75829
				c10.94771,0,21.86621,0,33.18111,0c0,0.97949,0,2.02289,0,3.06589c0,26.63622,0.0298,53.2588,0,79.86421
				c0,3.47659-0.1142,7.00391-0.3374,10.48248c-0.89059,12.62692-9.1416,21.1582-21.769,22.3457
				C155.418,368.0625,151.8179,367.78909,147.8877,367.78909z"/>
			<path fill-rule="evenodd" clip-rule="evenodd" fill="#D7C6AA" d="M234.9478,252.0103c0,29.02629,0,57.8452,0,86.8784
				c-6.9458-0.03522-13.855,0.64059-20.11479-2.58789c-9.02783-4.61722-12.8916-12.48831-12.97559-22.31451
				c-0.10889-14.19919,0-28.41211,0-42.6572c0-6.30759,0-12.69339,0-19.3188
				C212.81689,252.0103,223.7534,252.0103,234.9478,252.0103z"/>
			<path fill-rule="evenodd" clip-rule="evenodd" fill="#D7C6AA" d="M126.9849,339.4238
				c-5.6636-0.62299-11.0078-0.66791-16.1485-1.81641c-8.8589-1.95309-15.54-9.8457-16.4062-18.89648
				c-0.4995-4.94141-0.6026-9.86322-0.6026-14.79681c-0.0898-16.55078-0.0649-33.11139-0.0649-49.64119
				c0-0.7309,0.12009-1.41791,0.1553-2.28711c11.0332,0,21.9863,0,33.0669,0
				C126.9849,280.9014,126.9849,309.80859,126.9849,339.4238z"/>
			<path fill-rule="evenodd" clip-rule="evenodd" fill="#D7C6AA" d="M201.91162,230.7881c0-10.7798,0-21.6138,0-32.459
				c16.98488-2.39841,31.71729,4.7095,32.80128,22.7202c0.15039,2.70509,0.1929,5.38719,0.3555,8.0591
				c0.0361,1.2695-0.23541,2.05811-1.7764,2.05811c-10.22461-0.05321-20.47511-0.05321-30.74367-0.0869
				C202.3877,231.07961,202.22412,230.938,201.91162,230.7881z"/>
		</g>
	</g>
</g>
<g id="layout_ref" display="none">
</g>
</svg>
