<svg width="100" height="100" viewBox="0 0 100 100" fill="none" xmlns="http://www.w3.org/2000/svg">
<path fill-rule="evenodd" clip-rule="evenodd" d="M49.9999 13C50.0001 13 50.0003 13 50.0005 13L50.0005 66.516C48.116 67.5185 46.1315 68.3113 44.0846 68.8783C43.8199 68.959 43.5462 69 43.2697 69C41.6941 69 40.4123 67.6913 40.4123 66.0825C40.4123 65.1402 40.8501 64.27 41.5914 63.7215C41.6082 63.7087 41.6251 63.6963 41.6421 63.6838C42.3196 63.1942 42.9811 62.6642 43.6093 62.1076C43.6332 62.0849 43.6579 62.0628 43.6828 62.0412C43.6888 62.036 43.6955 62.0299 43.7025 62.0237L43.6913 62.0126C43.682 62.0034 43.6676 61.9893 43.6595 61.9817C40.6475 59.1671 38.2741 55.82 36.6049 52.0332C34.8765 48.1119 34 43.9268 34 39.5944C34 34.1738 35.4175 28.8529 38.0993 24.2074C40.7014 19.7003 44.4206 15.9332 48.8551 13.3137C49.2093 13.1046 49.6046 13 49.9999 13Z" fill="url(#paint0_linear)"/>
<path fill-rule="evenodd" clip-rule="evenodd" d="M50 13C50.3953 13 50.7906 13.1048 51.1448 13.3142C55.5793 15.9378 59.2986 19.7108 61.9005 24.2249C64.5824 28.8779 66 34.2069 66 39.636C66 45.0648 64.5824 50.3938 61.9005 55.0467C59.2985 59.5609 55.5793 63.3339 51.1448 65.9575C51.1309 65.9659 51.117 65.9738 51.1028 65.9818C50.7393 66.1959 50.3717 66.402 50.0002 66.6L50 13Z" fill="url(#paint1_linear)"/>
<path fill-rule="evenodd" clip-rule="evenodd" d="M50 13C50.3962 13 50.7925 13.1041 51.1474 13.3123C55.5923 15.9199 59.3204 19.6698 61.9284 24.1564C62.5552 25.2349 63.1132 26.3499 63.6003 27.4942L50 41.0001V13Z" fill="#ECF6FE"/>
<path fill-rule="evenodd" clip-rule="evenodd" d="M41.4375 75.2403C41.833 75.2403 42.1536 75.5631 42.1536 75.9612C42.1536 76.3594 41.833 76.6821 41.4375 76.6821H39.3815C38.864 76.6821 38.5177 76.7589 38.2224 76.9179C37.9582 77.0602 37.7551 77.2646 37.6138 77.5306C37.4559 77.8279 37.3797 78.1765 37.3797 78.6975V81.5428C37.3797 82.0638 37.4559 82.4124 37.6138 82.7097C37.7551 82.9757 37.9582 83.1802 38.2224 83.3224C38.4908 83.4669 38.8015 83.5435 39.2445 83.5562L39.3815 83.5582H41.4375C41.833 83.5582 42.1536 83.8809 42.1536 84.2791C42.1536 84.6551 41.8676 84.9639 41.5027 84.9971L41.4375 85H39.3815C38.6407 85 38.0639 84.8721 37.547 84.5938C37.0332 84.3172 36.6257 83.907 36.3509 83.3897C36.0745 82.8693 35.9475 82.2886 35.9475 81.5428L35.9482 81.6682L35.9477 81.652L35.9475 78.6046C35.9475 78.5937 35.9477 78.5829 35.9482 78.5721L35.9475 78.6975C35.9475 77.9517 36.0745 77.371 36.3509 76.8506C36.6257 76.3334 37.0332 75.9231 37.547 75.6465C38.0639 75.3682 38.6407 75.2403 39.3815 75.2403H41.4375ZM30.962 75C31.7028 75 32.2796 75.1279 32.7965 75.4062C33.3103 75.6828 33.7178 76.093 33.9925 76.6103C34.269 77.1307 34.396 77.7114 34.396 78.4572V81.3954C34.396 82.1412 34.269 82.7219 33.9925 83.2423C33.7178 83.7595 33.3103 84.1698 32.7965 84.4464C32.2796 84.7247 31.7028 84.8526 30.962 84.8526H30.6691C29.9283 84.8526 29.3515 84.7247 28.8346 84.4464C28.3208 84.1698 27.9133 83.7595 27.6386 83.2423C27.3621 82.7219 27.2351 82.1412 27.2351 81.3954V78.4572C27.2351 77.7114 27.3621 77.1307 27.6386 76.6103C27.9133 76.093 28.3208 75.6828 28.8346 75.4062C29.3515 75.1279 29.9283 75 30.6691 75H30.962ZM74.5116 75C76.1963 75 77.1626 76.0771 77.5348 77.7361C77.6836 78.3989 77.7191 78.9588 77.7191 79.7766V84.1317C77.7191 84.5298 77.3985 84.8526 77.0031 84.8526C76.6076 84.8526 76.287 84.5298 76.287 84.1317L76.2866 81.7286H72.4674L72.4678 84.0115C72.4678 84.4097 72.1472 84.7324 71.7518 84.7324C71.3563 84.7324 71.0357 84.4097 71.0357 84.0115V79.7766C71.0357 78.9588 71.0712 78.3989 71.22 77.7361C71.5922 76.0771 72.5585 75 74.2432 75H74.5116ZM55.5476 75C56.2884 75 56.8652 75.1279 57.3821 75.4062C57.8959 75.6828 58.3033 76.093 58.5781 76.6103C58.8546 77.1307 58.9816 77.7114 58.9816 78.4572V81.3954C58.9816 82.1412 58.8546 82.7219 58.5781 83.2423C58.3033 83.7595 57.8959 84.1698 57.3821 84.4464C56.8652 84.7247 56.2884 84.8526 55.5476 84.8526H55.2547C54.5139 84.8526 53.9371 84.7247 53.4202 84.4464C52.9064 84.1698 52.4989 83.7595 52.2242 83.2423C51.9477 82.7219 51.8207 82.1412 51.8207 81.3954V78.4572C51.8207 77.7114 51.9477 77.1307 52.2242 76.6103C52.4989 76.093 52.9064 75.6828 53.4202 75.4062C53.9371 75.1279 54.5139 75 55.2547 75H55.5476ZM50.2692 75C50.6647 75 50.9853 75.3228 50.9853 75.7209C50.9853 76.1191 50.6647 76.4418 50.2692 76.4418L47.8209 76.4414L47.8214 84.1317C47.8214 84.5077 47.5354 84.8165 47.1705 84.8496L47.1053 84.8526C46.7098 84.8526 46.3892 84.5298 46.3892 84.1317L46.3887 76.4414L44.0631 76.4418C43.6896 76.4418 43.3829 76.1539 43.35 75.7865L43.347 75.7209C43.347 75.3228 43.6676 75 44.0631 75H50.2692ZM80.2839 75C80.6794 75 81 75.3228 81 75.7209V84.1317C81 84.5298 80.6794 84.8526 80.2839 84.8526C79.8884 84.8526 79.5678 84.5298 79.5678 84.1317V75.7209C79.5678 75.3228 79.8884 75 80.2839 75ZM24.9294 75.6278C25.1123 75.2748 25.5449 75.1379 25.8955 75.3221C26.2461 75.5062 26.3821 75.9417 26.1991 76.2947L23.4015 81.6919L23.355 84.1455C23.3478 84.5215 23.056 84.8247 22.6905 84.8508L22.6253 84.8524C22.2299 84.8448 21.9155 84.5159 21.9231 84.1178L21.9703 81.6471L19.0871 76.3055C18.9093 75.9762 19.0128 75.5691 19.3153 75.3639L19.3743 75.3278C19.7218 75.1377 20.1565 75.2672 20.3454 75.617L22.687 79.9546L24.9294 75.6278ZM68.41 82.9301C68.9373 82.9301 69.3648 83.3605 69.3648 83.8913C69.3648 84.4222 68.9373 84.8526 68.41 84.8526C67.8827 84.8526 67.4552 84.4222 67.4552 83.8913C67.4552 83.3605 67.8827 82.9301 68.41 82.9301ZM61.4879 75C61.8834 75 62.204 75.3228 62.204 75.7209V81.3025C62.204 81.8235 62.2802 82.1721 62.4381 82.4694C62.5794 82.7354 62.7825 82.9398 63.0467 83.0821C63.342 83.2411 63.6883 83.3179 64.2058 83.3179H65.307C65.7025 83.3179 66.0231 83.6406 66.0231 84.0388C66.0231 84.4369 65.7025 84.7597 65.307 84.7597H64.2058C63.465 84.7597 62.8882 84.6318 62.3713 84.3535C61.8575 84.0769 61.45 83.6667 61.1752 83.1494C60.8988 82.629 60.7718 82.0483 60.7718 81.3025V75.7209C60.7718 75.3228 61.0924 75 61.4879 75ZM30.962 76.4418H30.6691C30.1516 76.4418 29.8053 76.5186 29.51 76.6776C29.2458 76.8199 29.0428 77.0243 28.9015 77.2903C28.7435 77.5876 28.6673 77.9362 28.6673 78.4572V81.3954C28.6673 81.9164 28.7435 82.265 28.9015 82.5623C29.0428 82.8283 29.2458 83.0327 29.51 83.175C29.8053 83.334 30.1516 83.4107 30.6691 83.4107H30.962C31.4795 83.4107 31.8258 83.334 32.1211 83.175C32.3853 83.0327 32.5883 82.8283 32.7296 82.5623C32.8875 82.265 32.9638 81.9164 32.9638 81.3954V78.4572C32.9638 77.9362 32.8875 77.5876 32.7296 77.2903C32.5883 77.0243 32.3853 76.8199 32.1211 76.6776C31.8258 76.5186 31.4795 76.4418 30.962 76.4418ZM55.5476 76.4418H55.2547C54.7372 76.4418 54.3909 76.5186 54.0956 76.6776C53.8314 76.8199 53.6284 77.0243 53.4871 77.2903C53.3291 77.5876 53.2529 77.9362 53.2529 78.4572V81.3954C53.2529 81.9164 53.3291 82.265 53.4871 82.5623C53.6284 82.8283 53.8314 83.0327 54.0956 83.175C54.3909 83.334 54.7372 83.4107 55.2547 83.4107H55.5476C56.0651 83.4107 56.4114 83.334 56.7067 83.175C56.9709 83.0327 57.1739 82.8283 57.3152 82.5623C57.4731 82.265 57.5494 81.9164 57.5494 81.3954V78.4572C57.5494 77.9362 57.4731 77.5876 57.3152 77.2903C57.1739 77.0243 56.9709 76.8199 56.7067 76.6776C56.4114 76.5186 56.0651 76.4418 55.5476 76.4418ZM74.5116 76.4418H74.2432C73.3422 76.4418 72.8574 76.9823 72.6169 78.0538C72.4981 78.5834 72.4678 79.0597 72.4678 79.7766L72.4674 80.2867H76.2866L76.287 79.7766C76.287 79.0597 76.2567 78.5834 76.1379 78.0538C75.8974 76.9823 75.4126 76.4418 74.5116 76.4418Z" fill="#00356A"/>
<defs>
<linearGradient id="paint0_linear" x1="42.0003" y1="27.711" x2="42.0003" y2="69" gradientUnits="userSpaceOnUse">
<stop stop-color="#13BDFF"/>
<stop offset="1" stop-color="#3F83FF"/>
</linearGradient>
<linearGradient id="paint1_linear" x1="58" y1="25.5532" x2="58" y2="66.6" gradientUnits="userSpaceOnUse">
<stop stop-color="#D8EDFF"/>
<stop offset="1" stop-color="#8DC9FF"/>
</linearGradient>
</defs>
</svg>
