<svg width="72" height="72" viewBox="0 0 72 72" fill="none" xmlns="http://www.w3.org/2000/svg">
<path fill-rule="evenodd" clip-rule="evenodd" d="M27.6421 58.6838C27.8123 58.5608 27.9816 58.4352 28.1496 58.3072C28.5225 58.0233 28.8891 57.7277 29.2463 57.4231L29.2494 57.4205C29.3705 57.3172 29.4905 57.2129 29.6093 57.1076C29.6223 57.0953 29.6355 57.0831 29.6488 57.0711L29.6738 57.0491L29.6828 57.0412L29.7025 57.0237L29.701 57.0223L29.6999 57.0211L29.6931 57.0143C29.6839 57.0054 29.6681 56.9898 29.6595 56.9817C29.6078 56.9334 29.5563 56.8849 29.505 56.8364L29.4967 56.8284C29.0826 56.4358 28.6808 56.0331 28.2915 55.6203L28.2826 55.611L28.2823 55.6106C25.9164 53.1004 24.0109 50.2228 22.6049 47.0332C20.8765 43.1119 20 38.9268 20 34.5944C20 29.1738 21.4175 23.8529 24.0993 19.2074C26.7014 14.7003 30.4206 10.9332 34.8551 8.31369C35.2093 8.10462 35.6046 8 35.9999 8C35.9999 8 36 8 36 8C36.3962 8 36.7925 8.10415 37.1475 8.31227C37.4347 8.48076 37.7189 8.65402 38 8.83195C42.0694 11.4076 45.4889 14.9597 47.9284 19.1564C48.5552 20.2349 49.1132 21.3499 49.6003 22.4942L49.5582 22.536C51.1629 26.3225 52 30.429 52 34.5944C52 40.0147 50.5824 45.3354 47.9005 49.981C45.2985 54.4882 41.5792 58.2553 37.1447 60.8748C37.1308 60.8831 37.1169 60.8911 37.1027 60.899C34.8958 62.1972 32.5349 63.1995 30.0846 63.8783C29.8199 63.959 29.5462 64 29.2697 64C27.6941 64 26.4123 62.6913 26.4123 61.0825C26.4123 60.1402 26.8501 59.27 27.5914 58.7215C27.6082 58.7087 27.6251 58.6963 27.6421 58.6838ZM38 11.2467C41.3137 13.5844 44.1135 16.6477 46.1684 20.2073C46.5244 20.824 46.8566 21.4535 47.1646 22.0944L38 31.1954V11.2467ZM36 10C36 10 35.9999 10 35.9999 10C35.9583 10 35.9146 10.0107 35.8719 10.036C31.7373 12.4784 28.2631 15.9953 25.8314 20.2073C23.327 24.5455 22 29.5209 22 34.5944C22 38.6522 22.8199 42.5622 24.435 46.2266C25.9956 49.767 28.2113 52.8911 31.025 55.5204L31.0261 55.5214L31.0484 55.5425L31.0513 55.5453L32.7426 56.9844L31.0375 58.5129C31.0304 58.5193 31.0158 58.5324 31 58.5462L30.994 58.5514L30.9847 58.5596L30.9611 58.5819L30.9357 58.6044C30.2605 59.2028 29.5498 59.7724 28.8212 60.2993L28.8086 60.3086L28.8046 60.3116L28.793 60.3204L28.781 60.3293C28.5563 60.4955 28.4123 60.7656 28.4123 61.0825C28.4123 61.6261 28.8376 62 29.2697 62C29.3475 62 29.4245 61.9886 29.501 61.9653L29.5258 61.9577L29.5507 61.9508C31.7988 61.3281 33.9679 60.4122 36 59.2271V36.0001V10ZM38 57.9418V34.014L48.0207 24.0628C49.322 27.3921 50 30.9682 50 34.5944C50 39.6675 48.6728 44.6428 46.1684 48.981C44.1133 52.5408 41.3136 55.6041 38 57.9418Z" fill="white"/>
</svg>
