<svg width="196" height="72" viewBox="0 0 196 72" fill="none" xmlns="http://www.w3.org/2000/svg">
<path fill-rule="evenodd" clip-rule="evenodd" d="M31.9999 8C32.0001 8 32.0003 8 32.0005 8L32.0005 61.516C30.116 62.5185 28.1315 63.3113 26.0846 63.8783C25.8199 63.959 25.5462 64 25.2697 64C23.6941 64 22.4123 62.6913 22.4123 61.0825C22.4123 60.1402 22.8501 59.27 23.5914 58.7215C23.6082 58.7087 23.6251 58.6963 23.6421 58.6838C24.3196 58.1942 24.9811 57.6642 25.6093 57.1076C25.6332 57.0849 25.6579 57.0628 25.6828 57.0412C25.6888 57.036 25.6955 57.0299 25.7025 57.0237L25.6913 57.0126C25.682 57.0034 25.6676 56.9893 25.6595 56.9817C22.6475 54.1671 20.2741 50.82 18.6049 47.0332C16.8765 43.1119 16 38.9268 16 34.5944C16 29.1738 17.4175 23.8529 20.0993 19.2074C22.7014 14.7003 26.4206 10.9332 30.8551 8.31369C31.2093 8.10462 31.6046 8 31.9999 8Z" fill="url(#paint0_linear)"/>
<path fill-rule="evenodd" clip-rule="evenodd" d="M32 8C32.3953 8 32.7906 8.10479 33.1448 8.31418C37.5793 10.9378 41.2987 14.7108 43.9005 19.2249C46.5824 23.8779 48 29.2069 48 34.636C48 40.0648 46.5824 45.3938 43.9005 50.0467C41.2985 54.5609 37.5793 58.3339 33.1448 60.9575C33.1309 60.9659 33.117 60.9738 33.1028 60.9818C32.7393 61.1959 32.3717 61.402 32.0002 61.6L32 8Z" fill="url(#paint1_linear)"/>
<path fill-rule="evenodd" clip-rule="evenodd" d="M32 8C32.3962 8 32.7925 8.10415 33.1475 8.31227C37.5923 10.9199 41.3204 14.6698 43.9284 19.1564C44.5552 20.2349 45.1132 21.3499 45.6003 22.4942L32 36.0001V8Z" fill="#ECF6FE"/>
<path fill-rule="evenodd" clip-rule="evenodd" d="M100.875 26.4806C101.666 26.4806 102.307 27.1261 102.307 27.9225C102.307 28.7188 101.666 29.3643 100.875 29.3643H96.763C95.728 29.3643 95.0354 29.5178 94.4448 29.8358C93.9164 30.1203 93.5103 30.5292 93.2277 31.0611C92.9118 31.6557 92.7593 32.353 92.7593 33.395V39.0857C92.7593 40.1276 92.9118 40.8249 93.2277 41.4195C93.5103 41.9514 93.9164 42.3603 94.4448 42.6448C94.9817 42.9339 95.6029 43.087 96.489 43.1125L96.763 43.1163H100.875C101.666 43.1163 102.307 43.7619 102.307 44.5582C102.307 45.3102 101.735 45.9278 101.005 45.9941L100.875 46H96.763C95.2814 46 94.1277 45.7442 93.094 45.1877C92.0664 44.6344 91.2514 43.8139 90.7019 42.7794C90.149 41.7387 89.895 40.5772 89.895 39.0857L89.8964 39.3365L89.8953 39.304L89.895 33.2092C89.895 33.1874 89.8955 33.1657 89.8964 33.1442L89.895 33.395C89.895 31.9034 90.149 30.7419 90.7019 29.7012C91.2514 28.6667 92.0664 27.8462 93.094 27.293C94.1277 26.7364 95.2814 26.4806 96.763 26.4806H100.875ZM79.924 26C81.4055 26 82.5592 26.2557 83.593 26.8123C84.6205 27.3656 85.4355 28.1861 85.985 29.2206C86.5379 30.2613 86.7919 31.4228 86.7919 32.9143V38.7908C86.7919 40.2823 86.5379 41.4438 85.985 42.4846C85.4355 43.5191 84.6205 44.3396 83.593 44.8928C82.5592 45.4494 81.4055 45.7051 79.924 45.7051H79.3382C77.8567 45.7051 76.703 45.4494 75.6692 44.8928C74.6417 44.3396 73.8267 43.5191 73.2771 42.4846C72.7243 41.4438 72.4702 40.2823 72.4702 38.7908V32.9143C72.4702 31.4228 72.7243 30.2613 73.2771 29.2206C73.8267 28.1861 74.6417 27.3656 75.6692 26.8123C76.703 26.2557 77.8567 26 79.3382 26H79.924ZM167.023 26C170.393 26 172.325 28.1542 173.07 31.4722C173.367 32.7978 173.438 33.9177 173.438 35.5532V44.2633C173.438 45.0596 172.797 45.7051 172.006 45.7051C171.215 45.7051 170.574 45.0596 170.574 44.2633L170.573 39.4571H162.935L162.936 44.023C162.936 44.8193 162.294 45.4648 161.504 45.4648C160.713 45.4648 160.071 44.8193 160.071 44.023V35.5532C160.071 33.9177 160.142 32.7978 160.44 31.4722C161.184 28.1542 163.117 26 166.486 26H167.023ZM129.095 26C130.577 26 131.73 26.2557 132.764 26.8123C133.792 27.3656 134.607 28.1861 135.156 29.2206C135.709 30.2613 135.963 31.4228 135.963 32.9143V38.7908C135.963 40.2823 135.709 41.4438 135.156 42.4846C134.607 43.5191 133.792 44.3396 132.764 44.8928C131.73 45.4494 130.577 45.7051 129.095 45.7051H128.509C127.028 45.7051 125.874 45.4494 124.84 44.8928C123.813 44.3396 122.998 43.5191 122.448 42.4846C121.895 41.4438 121.641 40.2823 121.641 38.7908V32.9143C121.641 31.4228 121.895 30.2613 122.448 29.2206C122.998 28.1861 123.813 27.3656 124.84 26.8123C125.874 26.2557 127.028 26 128.509 26H129.095ZM118.538 26C119.329 26 119.971 26.6455 119.971 27.4418C119.971 28.2381 119.329 28.8837 118.538 28.8837L113.642 28.8829L113.643 44.2633C113.643 45.0154 113.071 45.633 112.341 45.6993L112.211 45.7051C111.42 45.7051 110.778 45.0596 110.778 44.2633L110.777 28.8829L106.126 28.8837C105.379 28.8837 104.766 28.3079 104.7 27.5731L104.694 27.4418C104.694 26.6455 105.335 26 106.126 26H118.538ZM178.568 26C179.359 26 180 26.6455 180 27.4418V44.2633C180 45.0596 179.359 45.7051 178.568 45.7051C177.777 45.7051 177.136 45.0596 177.136 44.2633V27.4418C177.136 26.6455 177.777 26 178.568 26ZM67.8588 27.2555C68.2246 26.5495 69.0897 26.2758 69.791 26.6441C70.4922 27.0125 70.7641 27.8834 70.3982 28.5894L64.803 39.3838L64.71 44.291C64.6956 45.043 64.112 45.6494 63.381 45.7015L63.2506 45.7049C62.4597 45.6896 61.831 45.0317 61.8462 44.2356L61.9406 39.2943L56.1741 28.611C55.8186 27.9525 56.0255 27.1382 56.6305 26.7277L56.7486 26.6556C57.4435 26.2754 58.3131 26.5343 58.6908 27.234L63.374 35.9093L67.8588 27.2555ZM154.82 41.8602C155.875 41.8602 156.73 42.721 156.73 43.7827C156.73 44.8444 155.875 45.7051 154.82 45.7051C153.765 45.7051 152.91 44.8444 152.91 43.7827C152.91 42.721 153.765 41.8602 154.82 41.8602ZM140.976 26C141.767 26 142.408 26.6455 142.408 27.4418V38.605C142.408 39.647 142.56 40.3443 142.876 40.9389C143.159 41.4708 143.565 41.8797 144.093 42.1642C144.684 42.4822 145.377 42.6357 146.412 42.6357H148.614C149.405 42.6357 150.046 43.2812 150.046 44.0776C150.046 44.8739 149.405 45.5194 148.614 45.5194H146.412C144.93 45.5194 143.776 45.2636 142.743 44.707C141.715 44.1538 140.9 43.3333 140.35 42.2988C139.798 41.2581 139.544 40.0966 139.544 38.605V27.4418C139.544 26.6455 140.185 26 140.976 26ZM79.924 28.8837H79.3382C78.3033 28.8837 77.6106 29.0372 77.02 29.3552C76.4916 29.6397 76.0855 30.0486 75.8029 30.5805C75.4871 31.1751 75.3346 31.8724 75.3346 32.9143V38.7908C75.3346 39.8327 75.4871 40.53 75.8029 41.1246C76.0855 41.6566 76.4916 42.0654 77.02 42.3499C77.6106 42.6679 78.3033 42.8215 79.3382 42.8215H79.924C80.9589 42.8215 81.6515 42.6679 82.2421 42.3499C82.7705 42.0654 83.1766 41.6566 83.4592 41.1246C83.7751 40.53 83.9276 39.8327 83.9276 38.7908V32.9143C83.9276 31.8724 83.7751 31.1751 83.4592 30.5805C83.1766 30.0486 82.7705 29.6397 82.2421 29.3552C81.6515 29.0372 80.9589 28.8837 79.924 28.8837ZM129.095 28.8837H128.509C127.474 28.8837 126.782 29.0372 126.191 29.3552C125.663 29.6397 125.257 30.0486 124.974 30.5805C124.658 31.1751 124.506 31.8724 124.506 32.9143V38.7908C124.506 39.8327 124.658 40.53 124.974 41.1246C125.257 41.6566 125.663 42.0654 126.191 42.3499C126.782 42.6679 127.474 42.8215 128.509 42.8215H129.095C130.13 42.8215 130.823 42.6679 131.413 42.3499C131.942 42.0654 132.348 41.6566 132.63 41.1246C132.946 40.53 133.099 39.8327 133.099 38.7908V32.9143C133.099 31.8724 132.946 31.1751 132.63 30.5805C132.348 30.0486 131.942 29.6397 131.413 29.3552C130.823 29.0372 130.13 28.8837 129.095 28.8837ZM167.023 28.8837H166.486C164.684 28.8837 163.715 29.9646 163.234 32.1076C162.996 33.1669 162.936 34.1193 162.936 35.5532L162.935 36.5733H170.573L170.574 35.5532C170.574 34.1193 170.513 33.1669 170.276 32.1076C169.795 29.9646 168.825 28.8837 167.023 28.8837Z" fill="#00356A"/>
<defs>
<linearGradient id="paint0_linear" x1="24.0003" y1="22.711" x2="24.0003" y2="64" gradientUnits="userSpaceOnUse">
<stop stop-color="#13BDFF"/>
<stop offset="1" stop-color="#3F83FF"/>
</linearGradient>
<linearGradient id="paint1_linear" x1="40" y1="20.5532" x2="40" y2="61.6" gradientUnits="userSpaceOnUse">
<stop stop-color="#D8EDFF"/>
<stop offset="1" stop-color="#8DC9FF"/>
</linearGradient>
</defs>
</svg>
