<svg width="72" height="72" viewBox="0 0 72 72" fill="none" xmlns="http://www.w3.org/2000/svg">
<path fill-rule="evenodd" clip-rule="evenodd" d="M35.9999 8C36.0001 8 36.0003 8 36.0005 8L36.0005 61.516C34.116 62.5185 32.1315 63.3113 30.0846 63.8783C29.8199 63.959 29.5462 64 29.2697 64C27.6941 64 26.4123 62.6913 26.4123 61.0825C26.4123 60.1402 26.8501 59.27 27.5914 58.7215C27.6082 58.7087 27.6251 58.6963 27.6421 58.6838C28.3196 58.1942 28.9811 57.6642 29.6093 57.1076C29.6332 57.0849 29.6579 57.0628 29.6828 57.0412C29.6888 57.036 29.6955 57.0299 29.7025 57.0237L29.6913 57.0126C29.682 57.0034 29.6676 56.9893 29.6595 56.9817C26.6475 54.1671 24.2741 50.82 22.6049 47.0332C20.8765 43.1119 20 38.9268 20 34.5944C20 29.1738 21.4175 23.8529 24.0993 19.2074C26.7014 14.7003 30.4206 10.9332 34.8551 8.31369C35.2093 8.10462 35.6046 8 35.9999 8Z" fill="url(#paint0_linear)"/>
<path fill-rule="evenodd" clip-rule="evenodd" d="M36 8C36.3953 8 36.7906 8.10479 37.1448 8.31418C41.5793 10.9378 45.2987 14.7108 47.9005 19.2249C50.5824 23.8779 52 29.2069 52 34.636C52 40.0648 50.5824 45.3938 47.9005 50.0467C45.2985 54.5609 41.5793 58.3339 37.1448 60.9575C37.1309 60.9659 37.117 60.9738 37.1028 60.9818C36.7393 61.1959 36.3717 61.402 36.0002 61.6L36 8Z" fill="url(#paint1_linear)"/>
<path fill-rule="evenodd" clip-rule="evenodd" d="M36 8C36.3962 8 36.7925 8.10415 37.1475 8.31227C41.5923 10.9199 45.3204 14.6698 47.9284 19.1564C48.5552 20.2349 49.1132 21.3499 49.6003 22.4942L36 36.0001V8Z" fill="#ECF6FE"/>
<defs>
<linearGradient id="paint0_linear" x1="28.0003" y1="22.711" x2="28.0003" y2="64" gradientUnits="userSpaceOnUse">
<stop stop-color="#13BDFF"/>
<stop offset="1" stop-color="#3F83FF"/>
</linearGradient>
<linearGradient id="paint1_linear" x1="44" y1="20.5532" x2="44" y2="61.6" gradientUnits="userSpaceOnUse">
<stop stop-color="#D8EDFF"/>
<stop offset="1" stop-color="#8DC9FF"/>
</linearGradient>
</defs>
</svg>
